<?xml version="1.0" standalone="no"?>
<!DOCTYPE svg PUBLIC "-//W3C//DTD SVG 20010904//EN"
 "http://www.w3.org/TR/2001/REC-SVG-20010904/DTD/svg10.dtd">
<svg version="1.0" xmlns="http://www.w3.org/2000/svg"
 width="140.000000pt" height="140.000000pt" viewBox="0 0 140.000000 140.000000"
 preserveAspectRatio="xMidYMid meet">
<metadata>
Created by potrace 1.11, written by Peter Selinger 2001-2013
</metadata>
<g transform="translate(0.000000,140.000000) scale(0.100000,-0.100000)"
fill="#000000" stroke="none">
<path d="M813 1393 c-8 -3 -13 -23 -13 -48 0 -38 -3 -44 -25 -49 -28 -7 -25
-26 3 -26 10 0 23 -9 30 -20 11 -18 10 -20 -12 -20 -13 0 -29 -7 -36 -15 -10
-12 -9 -15 4 -15 10 0 14 5 11 10 -12 19 12 10 31 -12 19 -21 19 -21 -6 -14
-14 3 -55 11 -91 18 -56 10 -72 9 -108 -5 -23 -9 -53 -17 -66 -17 -14 0 -25
-4 -25 -10 0 -5 -6 -10 -14 -10 -15 0 -54 -49 -73 -90 -64 -146 -80 -251 -43
-285 29 -26 25 -35 -11 -28 -31 6 -32 5 -25 -23 4 -16 8 -29 9 -29 1 0 12 -6
24 -12 21 -12 24 -10 39 19 l16 31 21 -33 c12 -18 23 -28 25 -21 2 6 -4 24
-14 39 -33 49 -43 71 -33 77 12 8 12 52 -1 60 -23 14 0 89 28 91 27 2 31 5 36
22 8 23 102 95 127 97 11 1 19 -4 19 -11 0 -15 54 -58 73 -59 34 -2 109 -30
114 -41 3 -8 10 -14 15 -14 6 0 7 7 4 16 -4 10 -1 14 6 11 7 -2 13 -10 13 -18
1 -8 9 -35 19 -62 11 -26 17 -50 14 -52 -3 -3 -28 4 -56 16 -41 17 -59 19 -89
12 -53 -12 -68 -45 -48 -103 8 -23 15 -51 15 -61 0 -11 5 -19 10 -19 6 0 10
-6 10 -14 0 -8 -6 -14 -12 -13 -7 0 -35 -1 -61 -1 -48 -2 -49 -2 -42 -31 7
-31 -9 -51 -27 -33 -8 8 -7 20 2 42 7 17 10 33 7 36 -8 8 -121 -96 -130 -120
-12 -30 -15 -31 -37 -11 -23 21 -24 18 -10 -57 8 -39 7 -64 -1 -84 -6 -16 -13
-40 -15 -54 -7 -36 -38 -110 -46 -110 -5 0 -8 -7 -8 -16 0 -11 -6 -14 -20 -9
-14 5 -20 2 -20 -10 0 -12 5 -15 21 -10 15 5 19 4 15 -4 -4 -6 -16 -11 -27
-11 -10 0 -19 -7 -19 -15 0 -13 4 -14 21 -5 29 16 32 8 4 -16 -22 -20 -24 -20
-39 -3 -9 11 -11 21 -5 24 5 4 7 11 3 16 -9 15 -54 -30 -47 -47 3 -8 9 -12 13
-9 4 3 10 -2 14 -10 6 -15 -19 -22 -28 -7 -2 4 -19 8 -38 9 -18 0 -25 -1 -15
-4 24 -6 22 -29 -3 -29 -11 0 -20 6 -20 13 0 21 -21 15 -27 -7 -5 -20 -23 -28
-23 -10 0 6 -7 10 -15 10 -8 0 -15 -4 -15 -10 0 -5 -8 -10 -17 -10 -26 -1 -53
-24 -53 -46 0 -16 -2 -17 -10 -4 -8 13 -10 13 -10 -2 0 -13 9 -16 44 -15 24 1
44 6 43 12 -1 5 13 11 31 13 24 2 32 -1 32 -12 0 -10 9 -16 26 -16 21 0 24 4
19 20 -4 14 -2 20 8 20 9 0 13 -7 11 -18 -4 -13 2 -17 28 -19 l33 -2 -25 14
c-14 7 -24 17 -23 21 2 12 33 22 66 23 27 1 28 -1 22 -29 -6 -29 -5 -30 30
-30 20 0 34 4 31 8 -3 5 -7 21 -10 36 l-5 27 32 -19 c19 -11 31 -25 29 -35 -3
-15 37 -17 488 -17 l490 0 0 700 0 700 -287 -1 c-159 0 -294 -3 -300 -6z m2
-624 c5 -5 -3 -9 -20 -9 -23 0 -27 -3 -15 -10 8 -5 34 -10 57 -10 31 0 46 5
57 21 14 21 15 19 30 -30 16 -54 13 -133 -6 -184 -13 -34 -27 -19 -28 28 -1
40 -21 65 -54 65 -33 0 -69 23 -91 57 -10 14 -12 22 -6 19 16 -10 13 6 -5 33
-14 19 -14 25 -3 32 15 10 68 2 84 -12z m-40 -139 c3 -5 1 -10 -4 -10 -6 0
-11 5 -11 10 0 6 2 10 4 10 3 0 8 -4 11 -10z m-105 -88 c0 -4 -9 -13 -20 -20
-25 -15 -16 -38 21 -51 33 -11 38 -26 11 -33 -33 -9 -82 4 -93 24 -6 11 -20
29 -31 40 l-20 20 23 13 c26 14 109 20 109 7z m-204 -222 c17 -15 18 -31 2
-27 -18 3 -40 49 -32 66 6 13 8 12 11 -6 2 -12 11 -27 19 -33z m109 -90 c3 -5
-1 -10 -9 -10 -9 0 -16 5 -16 10 0 6 4 10 9 10 6 0 13 -4 16 -10z m39 -15 c3
-8 1 -15 -4 -15 -6 0 -10 7 -10 15 0 8 2 15 4 15 2 0 6 -7 10 -15z m651 -15
c3 -5 2 -10 -4 -10 -5 0 -13 5 -16 10 -3 6 -2 10 4 10 5 0 13 -4 16 -10z
m-846 -62 c12 -3 12 -6 -2 -11 -9 -3 -17 -2 -17 3 0 5 -15 7 -32 4 l-33 -5 30
14 c17 8 32 11 35 7 3 -4 12 -9 19 -12z m-29 -28 c0 -5 -7 -10 -16 -10 -8 0
-12 5 -9 10 3 6 10 10 16 10 5 0 9 -4 9 -10z m45 -10 c-3 -5 -14 -10 -23 -9
-14 0 -13 2 3 9 27 11 27 11 20 0z m55 -41 c0 -5 -4 -9 -10 -9 -5 0 -10 7 -10
16 0 8 5 12 10 9 6 -3 10 -10 10 -16z m207 -19 c2 -11 -2 -20 -7 -20 -6 0 -10
12 -10 27 0 29 12 24 17 -7z"/>
<path d="M830 696 c0 -2 8 -10 18 -17 15 -13 16 -12 3 4 -13 16 -21 21 -21 13z"/>
<path d="M0 546 l0 -487 30 23 c33 24 46 57 35 85 -13 33 -34 337 -50 732 -3
69 -8 127 -10 130 -3 2 -5 -215 -5 -483z"/>
<path d="M550 859 c-24 -10 -24 -11 -7 -24 17 -13 17 -14 -5 -21 -13 -4 -28
-7 -35 -6 -6 2 -14 -2 -18 -8 -3 -5 -1 -10 5 -10 6 0 9 -4 5 -10 -3 -6 24 -8
72 -5 l78 5 -3 32 c-6 57 -33 70 -92 47z"/>
<path d="M440 795 c0 -8 7 -15 15 -15 8 0 15 7 15 15 0 8 -7 15 -15 15 -8 0
-15 -7 -15 -15z"/>
<path d="M270 495 c0 -17 5 -25 13 -22 6 2 12 12 12 22 0 10 -6 20 -12 23 -8
2 -13 -6 -13 -23z"/>
<path d="M215 140 c3 -5 8 -10 11 -10 2 0 4 5 4 10 0 6 -5 10 -11 10 -5 0 -7
-4 -4 -10z"/>
<path d="M270 25 c7 -8 16 -15 21 -15 5 0 9 7 9 15 0 9 -9 15 -21 15 -18 0
-19 -2 -9 -15z"/>
</g>
</svg>
